<svg xmlns="http://www.w3.org/2000/svg" viewBox="0 0 100 100" width="100" height="100"><path d="M53.0,50.0L53.3,50.4L53.5,51.0L53.6,51.5L53.6,52.2L53.5,52.8L53.3,53.5L53.0,54.2L52.5,54.8L51.9,55.4L51.2,55.9L50.5,56.3L49.6,56.6L48.6,56.8L47.6,56.8L46.6,56.7L45.5,56.4L44.5,56.0L43.5,55.4L42.6,54.6L41.8,53.7L41.1,52.6L40.5,51.4L40.1,50.1L39.9,48.7L39.9,47.3L40.0,45.8L40.4,44.3L41.1,42.9L41.9,41.6L42.9,40.3L44.2,39.2L45.6,38.2L47.2,37.4L48.9,36.8L50.7,36.5L52.6,36.4L54.5,36.6L56.4,37.1L58.3,37.8L60.0,38.9L61.7,40.1L63.2,41.6L64.5,43.4L65.5,45.3L66.3,47.4L66.8,49.6L67.0,52.0L66.9,54.3L66.4,56.7L65.6,59.0L64.5,61.2L63.0,63.3L61.3,65.2L59.2,66.8L57.0,68.2L54.5,69.3L51.9,70.0L49.1,70.4L46.3,70.4L43.5,70.0L40.7,69.2L38.0,68.0L35.5,66.4L33.2,64.5L31.1,62.3L29.4,59.7L28.0,56.9L26.9,53.9L26.3,50.7L26.1,47.5L26.4,44.2L27.1,40.9L28.3,37.8L29.9,34.8L32.0,32.0L34.4,29.4L37.2,27.3L40.3,25.5L43.6,24.1L47.2,23.1L50.9,22.7L54.6,22.8L58.3,23.4L62.0,24.5L65.5,26.1L68.8,28.2L71.8,30.8L74.5,33.7L76.7,37.1L78.5,40.7L79.8,44.6L80.6,48.7L80.8,52.9L80.4,57.1L79.4,61.3L77.9,65.3L75.8,69.1L73.1,72.7L70.0,75.8L66.5,78.6L62.6,80.8L58.4,82.5L53.9,83.7L49.3,84.2L44.6,84.1L39.9,83.3L35.4,81.9L31.0,79.9L27.0,77.3L23.2,74.1L20.0,70.4L17.2,66.3L15.0,61.8L13.5,57.0L12.6,52.0L12.3,46.8L12.8,41.7L14.0,36.6L15.9,31.7L18.4,27.1" fill="none" stroke="white" stroke-linecap="round" stroke-linejoin="round" stroke-width="7"/></svg>