<svg xmlns="http://www.w3.org/2000/svg" viewBox="0 0 100 100" width="100" height="100"><path fill-rule="evenodd" d="M36,26 a22,22 0 1 0 0.1,44 a22,22 0 0 0 -0.1,-44 Z M36,46 a7,10 0 1 0 0.1,20 a7,10 0 0 0 -0.1,-20 Z M28,36 a4,4 0 1 0 0.1,8 Z M44,36 a4,4 0 1 0 0.1,8 Z" fill="white"/><path d="M62.2,29.6 A32,32 0 0 1 62.2,66.4" fill="none" stroke="white" stroke-linecap="round" stroke-linejoin="round" stroke-width="5"/><path d="M74.1,26.0 A44,44 0 0 1 74.1,70.0" fill="none" stroke="white" stroke-linecap="round" stroke-linejoin="round" stroke-width="5"/></svg>