<svg xmlns="http://www.w3.org/2000/svg" viewBox="0 0 100 100" width="100" height="100"><path fill-rule="evenodd" d="M50,24 a26,26 0 1 0 0.1,52 a26,26 0 0 0 -0.1,-52 Z M58,28 a22,22 0 1 1 -0.1,44 a22,22 0 0 1 0.1,-44 Z" fill="white"/><line x1="79.6" y1="62.2" x2="88.8" y2="66.1" fill="none" stroke="white" stroke-linecap="round" stroke-linejoin="round" stroke-width="4"/><line x1="62.2" y1="79.6" x2="66.1" y2="88.8" fill="none" stroke="white" stroke-linecap="round" stroke-linejoin="round" stroke-width="4"/><line x1="37.8" y1="79.6" x2="33.9" y2="88.8" fill="none" stroke="white" stroke-linecap="round" stroke-linejoin="round" stroke-width="4"/><line x1="20.4" y1="62.2" x2="11.2" y2="66.1" fill="none" stroke="white" stroke-linecap="round" stroke-linejoin="round" stroke-width="4"/><line x1="20.4" y1="37.8" x2="11.2" y2="33.9" fill="none" stroke="white" stroke-linecap="round" stroke-linejoin="round" stroke-width="4"/><line x1="37.8" y1="20.4" x2="33.9" y2="11.2" fill="none" stroke="white" stroke-linecap="round" stroke-linejoin="round" stroke-width="4"/><line x1="62.2" y1="20.4" x2="66.1" y2="11.2" fill="none" stroke="white" stroke-linecap="round" stroke-linejoin="round" stroke-width="4"/><line x1="79.6" y1="37.8" x2="88.8" y2="33.9" fill="none" stroke="white" stroke-linecap="round" stroke-linejoin="round" stroke-width="4"/></svg>