<svg xmlns="http://www.w3.org/2000/svg" viewBox="0 0 100 100" width="100" height="100"><line x1="57.0" y1="50.0" x2="90.0" y2="50.0" fill="none" stroke="white" stroke-linecap="round" stroke-linejoin="round" stroke-width="5.5"/><line x1="75.0" y1="50.0" x2="83.7" y2="43.2" fill="none" stroke="white" stroke-linecap="round" stroke-linejoin="round" stroke-width="4.5"/><line x1="75.0" y1="50.0" x2="83.7" y2="56.8" fill="none" stroke="white" stroke-linecap="round" stroke-linejoin="round" stroke-width="4.5"/><line x1="53.5" y1="56.1" x2="70.0" y2="84.6" fill="none" stroke="white" stroke-linecap="round" stroke-linejoin="round" stroke-width="5.5"/><line x1="62.5" y1="71.7" x2="72.7" y2="75.8" fill="none" stroke="white" stroke-linecap="round" stroke-linejoin="round" stroke-width="4.5"/><line x1="62.5" y1="71.7" x2="61.0" y2="82.5" fill="none" stroke="white" stroke-linecap="round" stroke-linejoin="round" stroke-width="4.5"/><line x1="46.5" y1="56.1" x2="30.0" y2="84.6" fill="none" stroke="white" stroke-linecap="round" stroke-linejoin="round" stroke-width="5.5"/><line x1="37.5" y1="71.7" x2="39.0" y2="82.5" fill="none" stroke="white" stroke-linecap="round" stroke-linejoin="round" stroke-width="4.5"/><line x1="37.5" y1="71.7" x2="27.3" y2="75.8" fill="none" stroke="white" stroke-linecap="round" stroke-linejoin="round" stroke-width="4.5"/><line x1="43.0" y1="50.0" x2="10.0" y2="50.0" fill="none" stroke="white" stroke-linecap="round" stroke-linejoin="round" stroke-width="5.5"/><line x1="25.0" y1="50.0" x2="16.3" y2="56.8" fill="none" stroke="white" stroke-linecap="round" stroke-linejoin="round" stroke-width="4.5"/><line x1="25.0" y1="50.0" x2="16.3" y2="43.2" fill="none" stroke="white" stroke-linecap="round" stroke-linejoin="round" stroke-width="4.5"/><line x1="46.5" y1="43.9" x2="30.0" y2="15.4" fill="none" stroke="white" stroke-linecap="round" stroke-linejoin="round" stroke-width="5.5"/><line x1="37.5" y1="28.3" x2="27.3" y2="24.2" fill="none" stroke="white" stroke-linecap="round" stroke-linejoin="round" stroke-width="4.5"/><line x1="37.5" y1="28.3" x2="39.0" y2="17.5" fill="none" stroke="white" stroke-linecap="round" stroke-linejoin="round" stroke-width="4.5"/><line x1="53.5" y1="43.9" x2="70.0" y2="15.4" fill="none" stroke="white" stroke-linecap="round" stroke-linejoin="round" stroke-width="5.5"/><line x1="62.5" y1="28.3" x2="61.0" y2="17.5" fill="none" stroke="white" stroke-linecap="round" stroke-linejoin="round" stroke-width="4.5"/><line x1="62.5" y1="28.3" x2="72.7" y2="24.2" fill="none" stroke="white" stroke-linecap="round" stroke-linejoin="round" stroke-width="4.5"/><circle cx="50" cy="50" r="5" fill="white"/></svg>