<svg xmlns="http://www.w3.org/2000/svg" viewBox="0 0 100 100" width="100" height="100"><path fill-rule="evenodd" d="M16,36 H84 Q92,36 92,50 Q92,64 84,64 H16 Q8,64 8,50 Q8,36 16,36 Z M36,43 a9,7 0 1 0 0.1,14 a9,7 0 0 0 -0.1,-14 Z M64,43 a9,7 0 1 0 0.1,14 a9,7 0 0 0 -0.1,-14 Z" fill="white"/><line x1="9" y1="46" x2="2" y2="40" fill="none" stroke="white" stroke-linecap="round" stroke-linejoin="round" stroke-width="4"/><line x1="91" y1="46" x2="98" y2="40" fill="none" stroke="white" stroke-linecap="round" stroke-linejoin="round" stroke-width="4"/></svg>