<svg xmlns="http://www.w3.org/2000/svg" viewBox="0 0 100 100" width="100" height="100"><path fill-rule="evenodd" d="M50,42 a18,18 0 1 0 0.1,36 a18,18 0 0 0 -0.1,-36 Z M42,52 a4.5,4.5 0 1 0 0.1,9 Z M58,52 a4.5,4.5 0 1 0 0.1,9 Z" fill="white"/><path d="M40,44 C34,36 38,28 32,18" fill="none" stroke="white" stroke-linecap="round" stroke-linejoin="round" stroke-width="5"/><path d="M50,42 C50,32 44,26 50,14" fill="none" stroke="white" stroke-linecap="round" stroke-linejoin="round" stroke-width="5"/><path d="M60,44 C66,36 62,28 68,18" fill="none" stroke="white" stroke-linecap="round" stroke-linejoin="round" stroke-width="5"/><path d="M34,52 C24,50 20,42 12,42" fill="none" stroke="white" stroke-linecap="round" stroke-linejoin="round" stroke-width="5"/><path d="M66,52 C76,50 80,42 88,42" fill="none" stroke="white" stroke-linecap="round" stroke-linejoin="round" stroke-width="5"/><circle cx="32" cy="16" r="3.5" fill="white"/><circle cx="50" cy="12" r="3.5" fill="white"/><circle cx="68" cy="16" r="3.5" fill="white"/><circle cx="11" cy="41" r="3.5" fill="white"/><circle cx="89" cy="41" r="3.5" fill="white"/></svg>