<svg xmlns="http://www.w3.org/2000/svg" viewBox="0 0 100 100" width="100" height="100"><g transform="translate(50 44) scale(0.85) translate(-50 -50)"><path d="M50,8 C55,26 71,35 71,60 A21,23 0 0 1 29,60 C29,45 42,38 39,20 C46,28 49,25 50,8 Z" fill="white"/></g><g transform="translate(24 70) scale(0.45) translate(-50 -50)"><path d="M50,8 C55,26 71,35 71,60 A21,23 0 0 1 29,60 C29,45 42,38 39,20 C46,28 49,25 50,8 Z" fill="white"/></g><g transform="translate(76 70) scale(0.45) translate(-50 -50)"><path d="M50,8 C55,26 71,35 71,60 A21,23 0 0 1 29,60 C29,45 42,38 39,20 C46,28 49,25 50,8 Z" fill="white"/></g></svg>