<svg xmlns="http://www.w3.org/2000/svg" viewBox="0 0 100 100" width="100" height="100"><path fill-rule="evenodd" d="M28,48 a22,22 0 1 1 44,0 V54 H28 Z M42,38 a4,4 0 1 0 0.1,8 Z M58,38 a4,4 0 1 0 0.1,8 Z" fill="white"/><path d="M32,54 C28,68 20,74 12,72 C18,80 28,80 34,72" fill="none" stroke="white" stroke-linecap="round" stroke-linejoin="round" stroke-width="6"/><path d="M44,54 C44,70 40,80 32,88" fill="none" stroke="white" stroke-linecap="round" stroke-linejoin="round" stroke-width="6"/><path d="M56,54 C56,70 60,80 68,88" fill="none" stroke="white" stroke-linecap="round" stroke-linejoin="round" stroke-width="6"/><path d="M68,54 C72,68 80,74 88,72 C82,80 72,80 66,72" fill="none" stroke="white" stroke-linecap="round" stroke-linejoin="round" stroke-width="6"/></svg>