<svg xmlns="http://www.w3.org/2000/svg" viewBox="0 0 100 100" width="100" height="100"><path d="M50,14 C57,30 55,44 50,56 C45,44 43,30 50,14 Z" fill="white"/><circle cx="50" cy="14" r="5.5" fill="white"/><path d="M44,46 C30,44 18,34 12,18 C24,26 36,29 44,32 Z" fill="white"/><path d="M56,46 C70,44 82,34 88,18 C76,26 64,29 56,32 Z" fill="white"/><path d="M45,58 C41,70 43,80 39,88" fill="none" stroke="white" stroke-linecap="round" stroke-linejoin="round" stroke-width="4"/><path d="M50,58 C50,70 52,80 50,88" fill="none" stroke="white" stroke-linecap="round" stroke-linejoin="round" stroke-width="4"/><path d="M55,58 C59,70 57,80 61,88" fill="none" stroke="white" stroke-linecap="round" stroke-linejoin="round" stroke-width="4"/></svg>