<svg xmlns="http://www.w3.org/2000/svg" viewBox="0 0 100 100" width="100" height="100"><path d="M12,34 C40,34 58,34 66,30 C74,26 76,17 70,15 C66,14 62,18 65,22" fill="none" stroke="white" stroke-linecap="round" stroke-linejoin="round" stroke-width="5"/><path d="M12,52 C44,52 66,52 76,48 C84,44 86,33 79,31 C74,30 70,34 73,38" fill="none" stroke="white" stroke-linecap="round" stroke-linejoin="round" stroke-width="5"/><path d="M12,70 C32,70 46,70 54,66 C60,63 60,55 55,54 C51,53 48,57 51,60" fill="none" stroke="white" stroke-linecap="round" stroke-linejoin="round" stroke-width="5"/></svg>