<svg xmlns="http://www.w3.org/2000/svg" viewBox="0 0 100 100" width="100" height="100"><line x1="58.0" y1="50.0" x2="86.0" y2="50.0" fill="none" stroke="white" stroke-linecap="round" stroke-linejoin="round" stroke-width="5"/><path d="M81.9,41.5 L95.0,50.0 L81.9,58.5 Z" fill="white"/><line x1="55.7" y1="55.7" x2="75.5" y2="75.5" fill="none" stroke="white" stroke-linecap="round" stroke-linejoin="round" stroke-width="5"/><path d="M78.5,66.6 L81.8,81.8 L66.6,78.5 Z" fill="white"/><line x1="50.0" y1="58.0" x2="50.0" y2="86.0" fill="none" stroke="white" stroke-linecap="round" stroke-linejoin="round" stroke-width="5"/><path d="M58.5,81.9 L50.0,95.0 L41.5,81.9 Z" fill="white"/><line x1="44.3" y1="55.7" x2="24.5" y2="75.5" fill="none" stroke="white" stroke-linecap="round" stroke-linejoin="round" stroke-width="5"/><path d="M33.4,78.5 L18.2,81.8 L21.5,66.6 Z" fill="white"/><line x1="42.0" y1="50.0" x2="14.0" y2="50.0" fill="none" stroke="white" stroke-linecap="round" stroke-linejoin="round" stroke-width="5"/><path d="M18.1,58.5 L5.0,50.0 L18.1,41.5 Z" fill="white"/><line x1="44.3" y1="44.3" x2="24.5" y2="24.5" fill="none" stroke="white" stroke-linecap="round" stroke-linejoin="round" stroke-width="5"/><path d="M21.5,33.4 L18.2,18.2 L33.4,21.5 Z" fill="white"/><line x1="50.0" y1="42.0" x2="50.0" y2="14.0" fill="none" stroke="white" stroke-linecap="round" stroke-linejoin="round" stroke-width="5"/><path d="M41.5,18.1 L50.0,5.0 L58.5,18.1 Z" fill="white"/><line x1="55.7" y1="44.3" x2="75.5" y2="24.5" fill="none" stroke="white" stroke-linecap="round" stroke-linejoin="round" stroke-width="5"/><path d="M66.6,21.5 L81.8,18.2 L78.5,33.4 Z" fill="white"/></svg>