<svg xmlns="http://www.w3.org/2000/svg" viewBox="0 0 100 100" width="100" height="100"><path fill-rule="evenodd" d="M50,34 C62,34 70,44 70,58 C70,74 62,86 50,86 C38,86 30,74 30,58 C30,44 38,34 50,34 Z M33,52 h34 v6 h-34 Z M34,66 h32 v6 h-32 Z" fill="white"/><ellipse cx="30" cy="34" rx="16" ry="9" fill="white" transform="rotate(-30 30 34)"/><ellipse cx="70" cy="34" rx="16" ry="9" fill="white" transform="rotate(30 70 34)"/><line x1="42" y1="26" x2="36" y2="16" fill="none" stroke="white" stroke-linecap="round" stroke-linejoin="round" stroke-width="4"/><line x1="58" y1="26" x2="64" y2="16" fill="none" stroke="white" stroke-linecap="round" stroke-linejoin="round" stroke-width="4"/></svg>