<svg xmlns="http://www.w3.org/2000/svg" viewBox="0 0 100 100" width="100" height="100"><g transform="translate(26 0)"><line x1="0" y1="88" x2="0" y2="40" fill="none" stroke="white" stroke-linecap="round" stroke-linejoin="round" stroke-width="4"/><ellipse cx="-6" cy="42" rx="8" ry="4.5" fill="white" transform="rotate(-35 -6 42)"/><ellipse cx="6" cy="42" rx="8" ry="4.5" fill="white" transform="rotate(35 6 42)"/><ellipse cx="-6" cy="52" rx="8" ry="4.5" fill="white" transform="rotate(-35 -6 52)"/><ellipse cx="6" cy="52" rx="8" ry="4.5" fill="white" transform="rotate(35 6 52)"/><ellipse cx="-6" cy="62" rx="8" ry="4.5" fill="white" transform="rotate(-35 -6 62)"/><ellipse cx="6" cy="62" rx="8" ry="4.5" fill="white" transform="rotate(35 6 62)"/><ellipse cx="0" cy="32" rx="4.5" ry="8" fill="white"/></g><g transform="translate(50 0)"><line x1="0" y1="88" x2="0" y2="40" fill="none" stroke="white" stroke-linecap="round" stroke-linejoin="round" stroke-width="4"/><ellipse cx="-6" cy="42" rx="8" ry="4.5" fill="white" transform="rotate(-35 -6 42)"/><ellipse cx="6" cy="42" rx="8" ry="4.5" fill="white" transform="rotate(35 6 42)"/><ellipse cx="-6" cy="52" rx="8" ry="4.5" fill="white" transform="rotate(-35 -6 52)"/><ellipse cx="6" cy="52" rx="8" ry="4.5" fill="white" transform="rotate(35 6 52)"/><ellipse cx="-6" cy="62" rx="8" ry="4.5" fill="white" transform="rotate(-35 -6 62)"/><ellipse cx="6" cy="62" rx="8" ry="4.5" fill="white" transform="rotate(35 6 62)"/><ellipse cx="0" cy="32" rx="4.5" ry="8" fill="white"/></g><g transform="translate(74 0)"><line x1="0" y1="88" x2="0" y2="40" fill="none" stroke="white" stroke-linecap="round" stroke-linejoin="round" stroke-width="4"/><ellipse cx="-6" cy="42" rx="8" ry="4.5" fill="white" transform="rotate(-35 -6 42)"/><ellipse cx="6" cy="42" rx="8" ry="4.5" fill="white" transform="rotate(35 6 42)"/><ellipse cx="-6" cy="52" rx="8" ry="4.5" fill="white" transform="rotate(-35 -6 52)"/><ellipse cx="6" cy="52" rx="8" ry="4.5" fill="white" transform="rotate(35 6 52)"/><ellipse cx="-6" cy="62" rx="8" ry="4.5" fill="white" transform="rotate(-35 -6 62)"/><ellipse cx="6" cy="62" rx="8" ry="4.5" fill="white" transform="rotate(35 6 62)"/><ellipse cx="0" cy="32" rx="4.5" ry="8" fill="white"/></g></svg>