<svg xmlns="http://www.w3.org/2000/svg" viewBox="0 0 100 100" width="100" height="100"><circle cx="34" cy="36" r="13" fill="white"/><circle cx="52" cy="28" r="16" fill="white"/><circle cx="68" cy="37" r="12" fill="white"/><rect x="32" y="36" width="38" height="14" rx="7" fill="white"/><g transform="translate(34 64)"><line x1="0" y1="0" x2="7.0" y2="0.0" fill="none" stroke="white" stroke-linecap="round" stroke-linejoin="round" stroke-width="3"/><line x1="0" y1="0" x2="3.5" y2="6.1" fill="none" stroke="white" stroke-linecap="round" stroke-linejoin="round" stroke-width="3"/><line x1="0" y1="0" x2="-3.5" y2="6.1" fill="none" stroke="white" stroke-linecap="round" stroke-linejoin="round" stroke-width="3"/><line x1="0" y1="0" x2="-7.0" y2="0.0" fill="none" stroke="white" stroke-linecap="round" stroke-linejoin="round" stroke-width="3"/><line x1="0" y1="0" x2="-3.5" y2="-6.1" fill="none" stroke="white" stroke-linecap="round" stroke-linejoin="round" stroke-width="3"/><line x1="0" y1="0" x2="3.5" y2="-6.1" fill="none" stroke="white" stroke-linecap="round" stroke-linejoin="round" stroke-width="3"/></g><g transform="translate(54 74)"><line x1="0" y1="0" x2="7.0" y2="0.0" fill="none" stroke="white" stroke-linecap="round" stroke-linejoin="round" stroke-width="3"/><line x1="0" y1="0" x2="3.5" y2="6.1" fill="none" stroke="white" stroke-linecap="round" stroke-linejoin="round" stroke-width="3"/><line x1="0" y1="0" x2="-3.5" y2="6.1" fill="none" stroke="white" stroke-linecap="round" stroke-linejoin="round" stroke-width="3"/><line x1="0" y1="0" x2="-7.0" y2="0.0" fill="none" stroke="white" stroke-linecap="round" stroke-linejoin="round" stroke-width="3"/><line x1="0" y1="0" x2="-3.5" y2="-6.1" fill="none" stroke="white" stroke-linecap="round" stroke-linejoin="round" stroke-width="3"/><line x1="0" y1="0" x2="3.5" y2="-6.1" fill="none" stroke="white" stroke-linecap="round" stroke-linejoin="round" stroke-width="3"/></g><g transform="translate(70 62)"><line x1="0" y1="0" x2="7.0" y2="0.0" fill="none" stroke="white" stroke-linecap="round" stroke-linejoin="round" stroke-width="3"/><line x1="0" y1="0" x2="3.5" y2="6.1" fill="none" stroke="white" stroke-linecap="round" stroke-linejoin="round" stroke-width="3"/><line x1="0" y1="0" x2="-3.5" y2="6.1" fill="none" stroke="white" stroke-linecap="round" stroke-linejoin="round" stroke-width="3"/><line x1="0" y1="0" x2="-7.0" y2="0.0" fill="none" stroke="white" stroke-linecap="round" stroke-linejoin="round" stroke-width="3"/><line x1="0" y1="0" x2="-3.5" y2="-6.1" fill="none" stroke="white" stroke-linecap="round" stroke-linejoin="round" stroke-width="3"/><line x1="0" y1="0" x2="3.5" y2="-6.1" fill="none" stroke="white" stroke-linecap="round" stroke-linejoin="round" stroke-width="3"/></g></svg>